<svg width="483" height="95" viewBox="0 0 483 95" fill="none" xmlns="http://www.w3.org/2000/svg">
<path d="M86.629 52.9749C85.9357 44.1373 79.4654 40.2999 66.7557 37.9742C57.7433 36.3462 55.4325 33.7879 55.4325 30.7645C55.4325 28.6714 56.819 24.834 64.2137 24.834C68.6044 24.834 73.1105 27.276 74.3815 31.1134L84.2702 25.1596C83.1212 23.2293 78.541 14.0195 64.2137 14.0195C48.8466 14.0195 42.9539 25.1829 44.4559 34.0205C45.8425 42.5093 52.4284 45.8816 63.1739 48.091C71.8396 49.8353 75.1903 51.4632 75.5369 54.1378C75.9991 57.2775 73.1105 60.8823 65.7158 60.8823C58.2055 60.8823 54.7658 57.6263 53.4948 54.1378L44.4562 59.5195C47.119 66.0826 53.4683 71.9294 66.178 71.9294C78.8876 71.9294 87.5533 63.9057 86.629 52.9749Z" fill="#0083E3"/>
<path d="M200.261 53.0307C199.563 44.193 193.04 40.3556 180.229 38.0299C171.145 36.402 168.815 33.8437 168.815 30.8203C168.815 28.7272 170.213 24.8898 177.667 24.8898C182.093 24.8898 186.635 27.3317 187.916 31.1691L197.883 24.8293C196.725 22.899 192.109 14.0753 177.667 14.0753C162.177 14.0753 156.237 25.2386 157.751 34.0763C159.149 42.565 165.787 45.9373 176.619 48.1467C185.354 49.891 188.731 51.519 189.081 54.1935C189.546 57.3332 186.635 60.938 179.181 60.938C171.611 60.938 167.893 57.6588 166.612 54.1703L157.751 59.5752C160.435 66.1383 166.835 71.9851 179.647 71.9851C192.458 71.9851 201.193 63.9614 200.261 53.0307Z" fill="#0083E3"/>
<path d="M254.217 14.8893H242.338L228.827 53.6121L215.201 14.8893H203.321L222.307 67.5837C222.684 68.6277 222.7 69.7737 222.356 70.8286C219.027 81.0293 218.006 83.1252 211.396 83.1252L206.582 93.9629C222.771 97.3352 228.595 85.4741 234.884 68.8454L254.217 14.8893Z" fill="#0083E3"/>
<path d="M331.848 59.9613C329.918 61.1195 329.346 61.4032 327.017 60.4729C324.571 59.5426 323.523 57.4495 323.523 52.4493V24.8898H335.053V14.8893H323.523V0.121094L312.459 6.68421V14.8893H304.888V24.8898H312.459V52.9144C312.459 63.1475 315.603 68.8454 322.591 71.0548C328.298 72.7991 336.095 71.5432 341.114 66.1383L331.848 59.9613Z" fill="#0083E3"/>
<path d="M393.489 47.7234C393.838 45.8629 393.955 44.0023 393.955 42.1418C393.955 26.327 385.22 14.0753 368.914 14.0753C352.609 14.0753 341.894 27.0992 341.894 42.9139C341.894 58.7286 352.958 71.7525 369.264 71.7525C379.629 71.7525 387.146 67.4826 391.688 59.5752L382.075 53.7284C379.513 57.9146 375.203 60.7055 369.264 60.7055C361.111 60.7055 355.986 54.7005 354.356 47.7234H393.489ZM368.914 25.1223C377.3 25.1223 381.376 30.704 382.541 38.0299H354.123C355.637 30.704 360.529 25.1223 368.914 25.1223Z" fill="#0083E3"/>
<path d="M461.952 14.0753C454.498 14.0753 448.675 17.4475 444.831 23.2618C441.221 17.215 435.281 14.0753 427.478 14.0753C422.004 14.0753 417.695 16.0521 414.317 19.3081V12.5729L403.253 19.0383V70.9385H414.317V39.6579C414.317 29.1923 418.859 25.1223 425.731 25.1223C432.253 25.1223 437.494 29.4249 437.494 40.3556V70.9385H448.558V39.6579C448.558 29.1923 453.45 25.1223 460.321 25.1223C466.727 25.1223 471.619 29.4249 471.619 40.3556V70.9385H482.8V39.3091C482.8 23.1455 475.229 14.0753 461.952 14.0753Z" fill="#0083E3"/>
<path d="M300.076 52.9749C299.378 44.1373 292.856 40.2999 280.044 37.9742C270.96 36.3462 268.63 33.7879 268.63 30.7645C268.63 28.6714 270.028 24.834 277.482 24.834C281.908 24.834 286.45 27.276 287.731 31.1134L297.699 25.1596C296.541 23.2293 291.924 14.0195 277.482 14.0195C261.992 14.0195 256.052 25.1829 257.566 34.0205C258.964 42.5093 265.602 45.8816 276.434 48.091C285.169 49.8352 288.546 51.4632 288.896 54.1378C289.362 57.2775 286.45 60.8823 278.996 60.8823C271.426 60.8823 267.699 57.3938 266.418 53.9052L257.566 59.5194C260.25 66.0826 266.651 71.9294 279.462 71.9294C292.273 71.9294 301.008 63.9057 300.076 52.9749Z" fill="#0083E3"/>
<path d="M21.8376 70.7973H32.8122V68.0326V18.0308V12.4751L21.8376 19.0382V70.7973Z" fill="#0083E3"/>
<path d="M125.33 14.6877C118.168 14.6877 112.392 17.2121 108.349 21.4576V15.4909H97.2586V92.7229L108.811 85.5934L108.349 64.8306C112.392 69.0761 118.168 71.6005 125.33 71.6005C141.503 71.6005 151.207 58.7492 151.207 43.1441C151.207 27.539 141.503 14.6877 125.33 14.6877ZM124.06 60.6999C113.894 60.6999 108.811 52.6678 108.811 43.1441C108.811 33.6204 114.009 25.5883 124.06 25.5883C133.995 25.5883 139.193 33.6204 139.193 43.1441C139.193 52.6678 134.11 60.6999 124.06 60.6999Z" fill="#0083E3"/>
<circle cx="8.7113" cy="18.6525" r="7.72131" fill="#F7D20F"/>
</svg>
