<svg xmlns="http://www.w3.org/2000/svg" width="5073" height="2842" viewBox="0 0 5073 2842">
  <metadata><?xpacket begin="﻿" id="W5M0MpCehiHzreSzNTczkc9d"?>
<x:xmpmeta xmlns:x="adobe:ns:meta/" x:xmptk="Adobe XMP Core 5.6-c142 79.160924, 2017/07/13-01:06:39        ">
   <rdf:RDF xmlns:rdf="http://www.w3.org/1999/02/22-rdf-syntax-ns#">
      <rdf:Description rdf:about=""/>
   </rdf:RDF>
</x:xmpmeta>
                                                                                                    
                                                                                                    
                                                                                                    
                                                                                                    
                                                                                                    
                                                                                                    
                                                                                                    
                                                                                                    
                                                                                                    
                                                                                                    
                                                                                                    
                                                                                                    
                                                                                                    
                                                                                                    
                                                                                                    
                                                                                                    
                                                                                                    
                                                                                                    
                                                                                                    
                                                                                                    
                           
<?xpacket end="w"?></metadata>
<defs>
    <style>
      .cls-1 {
        fill: #794748;
      }

      .cls-1, .cls-10, .cls-11, .cls-12, .cls-15, .cls-2, .cls-21, .cls-3, .cls-4, .cls-5, .cls-6, .cls-7, .cls-8, .cls-9 {
        stroke: #959595;
      }

      .cls-1, .cls-10, .cls-11, .cls-12, .cls-13, .cls-14, .cls-17, .cls-18, .cls-19, .cls-2, .cls-20, .cls-21, .cls-3, .cls-4, .cls-5, .cls-6, .cls-7, .cls-8, .cls-9 {
        stroke-width: 1px;
      }

      .cls-2, .cls-3 {
        fill: #b2b5c8;
      }

      .cls-14, .cls-17, .cls-20, .cls-3, .cls-5 {
        fill-rule: evenodd;
      }

      .cls-4 {
        fill: #ecba16;
      }

      .cls-5, .cls-6 {
        fill: #868ba5;
      }

      .cls-7 {
        fill: #183435;
      }

      .cls-8 {
        fill: #fff;
      }

      .cls-9 {
        fill: #992d2d;
      }

      .cls-10 {
        fill: #378184;
      }

      .cls-11 {
        fill: #f6de74;
      }

      .cls-12 {
        fill: #eb4d2f;
      }

      .cls-13, .cls-14 {
        fill: #6190de;
        stroke: #3498db;
      }

      .cls-15 {
        fill: #acacac;
        stroke-width: 35px;
      }

      .cls-16 {
        font-size: 200px;
        fill: #ccc;
        font-family: "Segoe UI";
        font-weight: 800;
      }

      .cls-17, .cls-18 {
        fill: #fcd9a5;
        stroke: #fcd9a5;
      }

      .cls-19, .cls-20 {
        fill: #5f3a17;
        stroke: #992d2d;
      }
    </style>
  </defs>
  <g id="Table">
    <rect class="cls-1" y="2678" width="5073" height="164"/>
  </g>
  <g id="Lamp">
    <rect id="Rounded_Rectangle_10" data-name="Rounded Rectangle 10" class="cls-2" x="3760" y="2550" width="909" height="129" rx="50" ry="50"/>
    <path class="cls-3" d="M4553.36,1916.38l80.5,61-319.37,421.39-80.49-61Z"/>
    <path class="cls-3" d="M4099.4,1364.76l89.05-74.69,418.35,498.78-89.05,74.69Z"/>
    <circle class="cls-4" cx="3814" cy="1376" r="115"/>
    <path id="Rounded_Rectangle_11" data-name="Rounded Rectangle 11" class="cls-5" d="M4186.11,1131.59a143,143,0,0,1-35.08,199.17l-134.32,94.09a143,143,0,0,1-164.09-234.25l134.33-94.09A143,143,0,0,1,4186.11,1131.59Z"/>
    <path id="Rounded_Rectangle_12" data-name="Rounded Rectangle 12" class="cls-3" d="M3991.98,1243.09l7.83,11.6c64.93,96.1,39.66,226.64-56.44,291.57l-42.26,28.55a10,10,0,0,1-13.89-2.69l-231.76-343.05a10,10,0,0,1,2.68-13.88l42.26-28.55C3796.51,1121.71,3927.05,1146.98,3991.98,1243.09Z"/>
    <circle class="cls-6" cx="4215" cy="2435" r="116"/>
    <circle class="cls-6" cx="4634" cy="1894" r="116"/>
  </g>
  <g id="Books">
    <g id="_1st_book" data-name="1st book">
      <rect id="Rounded_Rectangle_4" data-name="Rounded Rectangle 4" class="cls-7" x="505" y="2496" width="743" height="181" rx="10" ry="10"/>
      <path id="Rounded_Rectangle_5" data-name="Rounded Rectangle 5" class="cls-8" d="M540,2518H854a0,0,0,0,1,0,0v140a0,0,0,0,1,0,0H540a10,10,0,0,1-10-10V2528A10,10,0,0,1,540,2518Z"/>
    </g>
    <g id="_2nd_book" data-name="2nd book">
      <rect id="Rounded_Rectangle_6" data-name="Rounded Rectangle 6" class="cls-9" x="681" y="2371" width="615" height="125" rx="10" ry="10"/>
      <rect id="Rounded_Rectangle_7" data-name="Rounded Rectangle 7" class="cls-8" x="701" y="2394" width="329" height="81"/>
    </g>
    <g id="_3rd_book" data-name="3rd book">
      <path id="Rounded_Rectangle_8" data-name="Rounded Rectangle 8" class="cls-10" d="M743,2273h484a30,30,0,0,1,30,30v38a30,30,0,0,1-30,30H743a0,0,0,0,1,0,0v-98A0,0,0,0,1,743,2273Z"/>
      <path id="Rounded_Rectangle_8-2" data-name="Rounded Rectangle 8" class="cls-8" d="M751,2290h458a30,30,0,0,1,30,30v8a30,30,0,0,1-30,30H751a0,0,0,0,1,0,0v-68A0,0,0,0,1,751,2290Z"/>
    </g>
    <g id="_4th_book" data-name="4th book">
      <path id="Rounded_Rectangle_8-3" data-name="Rounded Rectangle 8" class="cls-11" d="M711,2174h473a0,0,0,0,1,0,0v98a0,0,0,0,1,0,0H711a30,30,0,0,1-30-30v-38A30,30,0,0,1,711,2174Z"/>
      <rect class="cls-9" x="730" y="2173" width="42" height="98"/>
    </g>
    <g id="_5h_book" data-name="5h book">
      <path id="Rounded_Rectangle_9" data-name="Rounded Rectangle 9" class="cls-12" d="M649,2081h441a0,0,0,0,1,0,0v92a0,0,0,0,1,0,0H649a30,30,0,0,1-30-30v-32A30,30,0,0,1,649,2081Z"/>
    </g>
    <path id="Rounded_Rectangle_9-2" data-name="Rounded Rectangle 9" class="cls-8" d="M664,2096h426a0,0,0,0,1,0,0v62a0,0,0,0,1,0,0H664a30,30,0,0,1-30-30v-2A30,30,0,0,1,664,2096Z"/>
  </g>
  <g id="Body">
    <ellipse class="cls-13" cx="2530" cy="1612" rx="711" ry="260"/>
    <path class="cls-14" d="M1835.97,1552.68L2124,1665.77l-100.87,256.9L1735.1,1809.59Z"/>
    <path class="cls-14" d="M3020.75,1630.24L3241,1589.4l32.82,176.98-220.25,40.84Z"/>
  </g>
  <g id="Laptop">
    <path id="Rounded_Rectangle_1" data-name="Rounded Rectangle 1" class="cls-15" d="M1647,1677H3339a30,30,0,0,1,30,30v973a0,0,0,0,1,0,0H1617a0,0,0,0,1,0,0V1707A30,30,0,0,1,1647,1677Z"/>
    <text id="_" data-name="&lt; / &gt;" class="cls-16" x="2283.195" y="2261.124">&lt; / &gt;</text>
  </g>
  <g id="Head">
    <path class="cls-17" d="M2130.14,425L2315,429.383l-6.15,297.611-184.86-4.384Z"/>
    <ellipse class="cls-18" cx="2170.5" cy="430" rx="40.5" ry="34"/>
    <path id="Polygon_1" data-name="Polygon 1" class="cls-17" d="M2856.44,1087.01l-336.38,202.65-342.04-186.38-5.66-389.024,336.38-202.649,342.04,186.378ZM2575,582h315a10,10,0,0,1,10,10V775a10,10,0,0,1-10,10H2575a10,10,0,0,1-10-10V592A10,10,0,0,1,2575,582Z"/>
    <rect class="cls-18" x="2377" y="1167" width="269" height="247"/>
    <ellipse class="cls-18" cx="2511.5" cy="1414" rx="134.5" ry="125"/>
    <path class="cls-17" d="M2977.26,627.1c32.89,8.847,45.34,68.81,27.8,133.93s-58.43,110.739-91.32,101.892-45.34-68.809-27.8-133.929S2944.36,618.248,2977.26,627.1Z"/>
    <path class="cls-17" d="M2043.89,631.426c32.51-13.7,76.84,29.289,99.01,96.006s13.79,131.9-18.71,145.6-76.84-29.288-99.01-96.006S2011.39,645.121,2043.89,631.426Z"/>
    <path id="Polygon_2" data-name="Polygon 2" class="cls-17" d="M2522.77,1235.6l-343.35-128.73-70.25-398.6,273.12-269.859,343.36,128.735,70.24,398.6Z"/>
    <path id="Polygon_3" data-name="Polygon 3" class="cls-17" d="M2861.07,1077.54L2519.5,1202.62,2240.41,969.425l62.49-358.271,341.58-125.077,279.08,233.194Z"/>
    <rect class="cls-18" x="2133" y="256" width="769" height="446"/>
  </g>
  <g id="Hair">
    <ellipse class="cls-19" cx="2385.5" cy="31.5" rx="310.5" ry="31.5"/>
    <ellipse class="cls-19" cx="2530.5" cy="114.5" rx="303.5" ry="111.5"/>
    <path id="Polygon_10" data-name="Polygon 10" class="cls-20" d="M2640,443.26l-180.78-35.115L2580.42,265.4Z"/>
    <path id="Polygon_9" data-name="Polygon 9" class="cls-20" d="M2762.28,425.031l-148.92-15.349,87.63-121.472Z"/>
    <path class="cls-20" d="M2225.65,133.034l13.14-16.38,16.38,13.141-13.14,16.38Z"/>
    <path class="cls-20" d="M2150.48,226.005l479.51,16.051-6.47,169.949-479.51-16.051Z"/>
    <path id="Polygon_7" data-name="Polygon 7" class="cls-20" d="M2897.41,299.525l73.48,183.529L2900.77,685.49Z"/>
    <ellipse class="cls-19" cx="2135.5" cy="153" rx="187.5" ry="17"/>
    <path id="Polygon_6" data-name="Polygon 6" class="cls-20" d="M2132.78,445.01L1948.01,153.978l391.99,10.9Z"/>
    <path class="cls-20" d="M2091.59,367.264l46.79-4.422,30.18,319.4-46.79,4.422Z"/>
    <rect class="cls-19" x="2788" y="314" width="136" height="68"/>
    <ellipse class="cls-19" cx="2921" cy="339.5" rx="19" ry="21.5"/>
    <ellipse class="cls-19" cx="2953.5" cy="347" rx="31.5" ry="162"/>
    <ellipse class="cls-19" cx="2627" cy="220.5" rx="344" ry="191.5"/>
    <path id="Polygon_5" data-name="Polygon 5" class="cls-20" d="M2230.27,136L2075,33.062l279.02-8.055Z"/>
  </g>
  <g id="Glasses">
    <g id="Left">
      <rect id="Rounded_Rectangle_2" data-name="Rounded Rectangle 2" class="cls-21" x="2550" y="576" width="350" height="243" rx="40" ry="40"/>
      <rect id="Rounded_Rectangle_2-2" data-name="Rounded Rectangle 2" class="cls-8" x="2576.41" y="600" width="297.18" height="190.188" rx="30" ry="30"/>
    </g>
    <g id="Right">
      <rect id="Rounded_Rectangle_2-3" data-name="Rounded Rectangle 2" class="cls-21" x="2118" y="576" width="350" height="243" rx="40" ry="40"/>
      <rect id="Rounded_Rectangle_2-4" data-name="Rounded Rectangle 2" class="cls-8" x="2144.41" y="600" width="297.18" height="190.188" rx="30" ry="30"/>
    </g>
    <rect id="Rounded_Rectangle_3" data-name="Rounded Rectangle 3" class="cls-21" x="2442" y="609" width="134" height="56" rx="10" ry="10"/>
  </g>
</svg>
