<svg width="483" height="95" fill="none" xmlns="http://www.w3.org/2000/svg"><path d="M86.629 52.975c-.693-8.838-7.164-12.675-19.873-15-9.013-1.629-11.324-4.187-11.324-7.21 0-2.094 1.387-5.931 8.782-5.931 4.39 0 8.897 2.442 10.168 6.28l9.888-5.954c-1.149-1.93-5.729-11.14-20.056-11.14-15.367 0-21.26 11.163-19.758 20 1.386 8.49 7.972 11.862 18.718 14.071 8.666 1.744 12.016 3.372 12.363 6.047.462 3.14-2.427 6.744-9.821 6.744-7.51 0-10.95-3.256-12.221-6.744l-9.039 5.382c2.663 6.563 9.012 12.41 21.722 12.41s21.375-8.024 20.451-18.955Zm113.632.055c-.698-8.837-7.221-12.674-20.032-15-9.084-1.628-11.414-4.186-11.414-7.21 0-2.093 1.398-5.93 8.852-5.93 4.426 0 8.968 2.442 10.249 6.28l9.967-6.34c-1.158-1.931-5.774-10.755-20.216-10.755-15.49 0-21.43 11.164-19.916 20.001 1.398 8.489 8.036 11.861 18.868 14.07 8.735 1.745 12.112 3.373 12.462 6.047.465 3.14-2.446 6.745-9.9 6.745-7.57 0-11.288-3.28-12.569-6.768l-8.861 5.405c2.684 6.563 9.084 12.41 21.896 12.41 12.811 0 21.546-8.024 20.614-18.954Zm53.956-38.14h-11.879l-13.511 38.722-13.626-38.723h-11.88l18.986 52.695a5.004 5.004 0 0 1 .049 3.245c-3.329 10.2-4.35 12.296-10.96 12.296l-4.814 10.838c16.189 3.372 22.013-8.489 28.302-25.118l19.333-53.956Zm77.631 45.071c-1.93 1.159-2.502 1.442-4.831.512-2.446-.93-3.494-3.023-3.494-8.024V24.89h11.53v-10h-11.53V.121l-11.064 6.563v8.205h-7.571v10h7.571v28.025c0 10.233 3.144 15.931 10.132 18.14 5.707 1.745 13.504.49 18.523-4.916l-9.266-6.177Zm61.641-12.238c.349-1.86.466-3.72.466-5.581 0-15.815-8.735-28.067-25.041-28.067-16.305 0-27.02 13.024-27.02 28.839s11.064 28.838 27.37 28.838c10.365 0 17.882-4.27 22.424-12.177l-9.613-5.847c-2.562 4.187-6.872 6.977-12.811 6.977-8.153 0-13.278-6.005-14.908-12.982h39.133Zm-24.575-22.6c8.386 0 12.462 5.581 13.627 12.907h-28.418c1.514-7.326 6.406-12.908 14.791-12.908Zm93.038-11.048c-7.454 0-13.277 3.373-17.121 9.187-3.61-6.047-9.55-9.187-17.353-9.187-5.474 0-9.783 1.977-13.161 5.233v-6.735l-11.064 6.465v51.9h11.064v-31.28c0-10.466 4.542-14.536 11.414-14.536 6.522 0 11.763 4.303 11.763 15.234v30.583h11.064V39.658c0-10.466 4.892-14.536 11.763-14.536 6.406 0 11.298 4.303 11.298 15.234v30.583H482.8v-31.63c0-16.163-7.571-25.234-20.848-25.234Zm-161.876 38.9c-.698-8.838-7.22-12.675-20.032-15-9.084-1.629-11.414-4.187-11.414-7.21 0-2.094 1.398-5.931 8.852-5.931 4.426 0 8.968 2.442 10.249 6.28l9.968-5.954c-1.158-1.93-5.775-11.14-20.217-11.14-15.49 0-21.43 11.163-19.916 20 1.398 8.49 8.036 11.862 18.868 14.071 8.735 1.744 12.112 3.372 12.462 6.047.466 3.14-2.446 6.744-9.9 6.744-7.57 0-11.297-3.488-12.578-6.977l-8.852 5.614c2.684 6.564 9.085 12.41 21.896 12.41s21.546-8.023 20.614-18.954ZM21.838 70.797h10.974V12.475l-10.974 6.563v51.76ZM125.33 14.688c-7.162 0-12.938 2.524-16.981 6.77V15.49h-11.09v77.232l11.552-7.13-.462-20.762c4.043 4.245 9.819 6.77 16.981 6.77 16.173 0 25.877-12.852 25.877-28.457s-9.704-28.456-25.877-28.456ZM124.06 60.7c-10.166 0-15.249-8.032-15.249-17.556 0-9.524 5.198-17.556 15.249-17.556 9.935 0 15.133 8.032 15.133 17.556 0 9.524-5.083 17.556-15.133 17.556Z" fill="#0083E3"/><circle cx="8.711" cy="18.652" r="7.721" fill="#F7D20F"/></svg>